<svg xmlns="http://www.w3.org/2000/svg" width="200" height="200">
  <path d="M18.808 177.623l1.292 3.799 1.882 3.508 2.952 3.985 2.184 2.02 1.082.811 1.107.708.647.46c.417.252.85.47 1.284.69l1.372.626.989.447.894.328.477.132.4.067c.093.02.346.036.438.049l.572.071.264.037c.136.023.283.026.41.036l129.117.146c.32.017.664-.029.949-.06.2-.024.382-.051.5-.076.444-.1 1.005-.243 1.42-.378.415-.137.716-.306 1.11-.479a25.21 25.21 0 0 0 2.637-1.494c.557-.366 1.004-.66 1.503-1.061.428-.307.814-.631 1.234-.947l1.265-1.073 2.506-2.505 1.878-2.297 1.014-1.374.654-1.001.337-.631.285-.669.457-1.014.375-1.164.705-2.914.314-2.365.331-5.165.05-7.122-.971-8.731-165.66-.523-1.714 6.482.109 7.456.495 7.38z" fill="#fab441"/>
  <path d="M18.808 172.33l1.292 3.803 1.882 3.505 2.952 3.985 2.184 2.021 1.082.811 1.107.707.647.462c.417.251.85.47 1.284.69l1.372.625.989.447.894.329.477.131.4.067c.093.02.346.036.438.047l.572.073.264.036c.136.024.283.028.41.037l129.461.146c.379-.029.546-.037.779-.086a13.225 13.225 0 0 0 2.5-.82c.51-.224 1.005-.477 1.496-.757.375-.212.746-.44 1.119-.682l1.875-1.344 2.505-1.879 2.506-2.505 1.878-2.297 1.014-1.374.654-1.002.337-.63.285-.669.457-1.014.375-1.164.705-2.915.314-2.364.331-5.165.05-7.123-.971-8.73-165.66-.523-2.014 8.82.409 5.12.495 7.378z" fill="#e2e2e2"/>
  <path d="M38.754 4.554l.757-.053 97.09-.091 25.89-.095.308.019c.348.06.448.051.65.096l.85.223.89.188c.314.1.6.2.99.311.375.143.62.245.93.342l.97.328.856.285 1.193.484 1.234.638 2.297 1.147 2.19 1.463 2.193 2.087 1.984 1.88 1.253 1.878 1.147 2.296.835 2.818v.94s-.104 8.56-.104 8.977c0 .417.521 14.51.521 14.51l2.164 108.506-.147 2.73-.59 2.585-1.181 2.435-2.362 3.1-2.953 2.805-2.952 1.992-2.288 1.329-3.617 1.55-3.174.59-4.725.075-125.462-.661-2.935-.286-2.678-.698-2.194-1.033-2.245-1.396-2.364-1.83-2.067-1.995-1.329-1.697-1.328-1.992-.813-1.477-.885-1.845-.34-.943-.049-.173c-.028-.124-.051-.193-.061-.316-.014-.157-.046-.39-.054-.55l.001-.058.006-.26 2.732-136.32 1.086-2.914 1.7-2.73 1.183-1.318 1.73-1.597 1.283-1.07 1.154-.811 1.208-.797c.769-.282 1.413-.743 2.093-1.057a32.108 32.108 0 0 1 2.27-.97l.87-.381 1.139-.472 1.314-.42 1.027-.204z" fill="#fff"/>
</svg>
